:SAMPLES-PER-SECOND 30
:FULLY-SPECIFIED
:DEGREES
1
root  23.15422268 37.12177727 -66.88955713 -2.489720106 -9.821940422 -3.009140015
lowerback  7.865729809 1.572720051 6.35710001
upperback  3.472549915 2.552259922 1.656839967
thorax  -0.5995929837 1.319440007 -2.055269957
lowerneck  -12.49009991 4.067059994 1.034379959
upperneck  1.617840052 5.612460136 -6.407330036
head  2.972259998 2.547410011 -1.927520037
lclavicle  0 -1.620099928e-014 -1.431250036e-014
lhumerus  -51.98120117 32.38610077 64.93900299
lradius  -3.310037824e-031 -1.229834801e-031 20.38240051
lwrist  -2.824900031e-030 -2.118675023e-030 12.63099957
lhand  -1.522208093e-030 -21.89089966 22.84740067
lfingers  90 7.125020027 -90
lthumb  90.61603193 7.755020578 85.4441456
rclavicle  0 -1.620099928e-014 -1.431250036e-014
rhumerus  -9.402729988 14.87950039 -82.19740295
rradius  2.442900644e-031 2.549721648e-031 46.22570038
rwrist  0 -1.412450015e-030 -16.77980042
rhand  1.570731925e-030 -25.9428997 18.57430077
rfingers  -90 -7.125020027 -90
rthumb  -89.60083768 -33.59330664 -89.2785978
rfemur  16.17770004 1.967039943 29.91329956
rtibia  -0 0 11.5302
rfoot  -4.591065756e-032 -15.96870041 0.9255639911
rtoes  -1.575397198 19.94038992 -85.38945295
lfemur  -28.01910019 -1.020779967 -20.17830086
ltibia  -0 0 22.39769936
lfoot  -0 -12.1104002 13.47799969
ltoes  -3.695914299 -19.66929668 -100.8636129
2
root  23.13711061 37.07555636 -66.481775 -2.697289944 -10.00819969 -2.832429886
lowerback  7.445960045 1.653740048 6.093309879
upperback  3.912539959 2.585530043 1.671710014
thorax  0.07845570147 1.359920025 -1.869120002
lowerneck  -13.04030037 4.150800228 1.036550045
upperneck  1.419540048 5.71694994 -6.437960148
head  3.01315999 2.592060089 -1.923529983
lclavicle  0 -1.620099928e-014 -1.431250036e-014
lhumerus  -51.45949936 32.97359848 65.20939636
lradius  -3.311649138e-031 -1.2254893e-031 20.30719948
lwrist  0 -2.118675023e-030 12.3810997
lhand  -1.522208093e-030 -21.89089966 22.84740067
lfingers  90 7.125020027 -90
lthumb  90.61603193 7.755020578 85.4441456
rclavicle  0 -1.620099928e-014 -1.431250036e-014
rhumerus  -8.669850349 14.63049984 -81.98220062
rradius  2.451506469e-031 2.54144842e-031 46.0320015
rwrist  2.824900031e-030 -7.062250077e-031 -16.50370026
rhand  1.570731925e-030 -25.9428997 18.57430077
rfingers  -90 -7.125020027 -90
rthumb  -89.60083768 -33.59330664 -89.2785978
rfemur  17.20479965 2.069210052 29.67560005
rtibia  -0 0 11.23849964
rfoot  -5.730434443e-032 -15.67259979 0.9504820108
rtoes  -1.575397198 19.94038992 -85.38945295
lfemur  -27.7269001 -0.9531350136 -20.5821991
ltibia  -0 0 22.43950081
lfoot  -0 -12.37849998 13.68669987
ltoes  -3.695914299 -19.66929668 -100.8636129
3
root  23.11933322 37.05533245 -66.07088705 -2.73684001 -10.1104002 -2.679049969
lowerback  7.315189838 1.749240041 5.93159008
upperback  3.968450069 2.689059973 1.61540997
thorax  0.2110310048 1.414489985 -1.837339997
lowerneck  -13.11880016 4.141880035 1.069489956
upperneck  1.081859946 5.669829845 -6.252190113
head  2.902149916 2.582000017 -1.869600058
lclavicle  0 -1.620099928e-014 -1.431250036e-014
lhumerus  -51.35929871 33.28590012 65.0345993
lradius  -3.317549903e-031 -1.209424111e-031 20.02949905
lwrist  -2.824900031e-030 2.118675023e-030 11.61340046
lhand  -1.522208093e-030 -21.89089966 22.84740067
lfingers  90 7.125020027 -90
lthumb  90.61603193 7.755020578 85.4441456
rclavicle  0 -1.620099928e-014 -1.431250036e-014
rhumerus  -8.50177002 14.39850044 -81.94689941
rradius  2.468096495e-031 2.525340319e-031 45.65679932
rwrist  0 -0 -16.2262001
rhand  1.570731925e-030 -25.9428997 18.57430077
rfingers  -90 -7.125020027 -90
rthumb  -89.60083768 -33.59330664 -89.2785978
rfemur  17.71159935 2.035660028 29.37859917
rtibia  -0 0 11.61069965
rfoot  -4.584850817e-032 -15.69499969 1.226089954
rtoes  -1.575397198 19.94038992 -85.38945295
lfemur  -27.62809944 -0.8101480007 -21.0041008
ltibia  -0 0 22.68689919
lfoot  -0 -12.26249981 13.67479992
ltoes  -3.695914299 -19.66929668 -100.8636129
4
root  23.10022219 37.04355495 -65.64444594 -2.652899981 -10.19139957 -2.430140018
lowerback  7.193630219 1.823680043 5.74364996
upperback  3.818880081 2.774149895 1.449699998
thorax  0.1275729984 1.451500058 -1.90802002
lowerneck  -12.91779995 4.129909992 1.31882
upperneck  0.7061020136 5.585189819 -6.090660095
head  2.734369993 2.558939934 -1.869429946
lclavicle  0 -1.620099928e-014 -1.431250036e-014
lhumerus  -51.41180038 33.32939911 64.75650024
lradius  -3.322056483e-031 -1.196989874e-031 19.81489944
lwrist  -2.824900031e-030 -2.118675023e-030 11.11369991
lhand  -1.522208093e-030 -21.89089966 22.84740067
lfingers  90 7.125020027 -90
lthumb  90.61603193 7.755020578 85.4441456
rclavicle  0 -1.620099928e-014 -1.431250036e-014
rhumerus  -8.681070328 14.27869987 -82.17019653
rradius  2.483800916e-031 2.509895824e-031 45.29940033
rwrist  2.824900031e-030 -1.412450015e-030 -16.08270073
rhand  1.570731925e-030 -25.9428997 18.57430077
rfingers  -90 -7.125020027 -90
rthumb  -89.60083768 -33.59330664 -89.2785978
rfemur  18.21489906 2.093240023 28.99480057
rtibia  -0 0 11.75119972
rfoot  -4.577446076e-032 -15.36170006 1.422140002
rtoes  -1.575397198 19.94038992 -85.38945295
lfemur  -27.6637001 -0.3911220133 -21.61050034
ltibia  -0 0 23.23089981
lfoot  -0 -11.81449986 13.27950001
ltoes  -3.695914299 -19.66929668 -100.8636129
